<?xml version="1.0" encoding="UTF-8" standalone="no"?>
<svg
   width="16"
   height="16"
   version="1.1"
   id="svg2"
   sodipodi:docname="io.github.kaii_lb.Overskride-symbolic.svg"
   inkscape:version="1.3 (0e150ed6c4, 2023-07-21)"
   xmlns:inkscape="http://www.inkscape.org/namespaces/inkscape"
   xmlns:sodipodi="http://sodipodi.sourceforge.net/DTD/sodipodi-0.dtd"
   xmlns="http://www.w3.org/2000/svg"
   xmlns:svg="http://www.w3.org/2000/svg">
  <defs
     id="defs2" />
  <sodipodi:namedview
     id="namedview2"
     pagecolor="#ffffff"
     bordercolor="#000000"
     borderopacity="0.25"
     inkscape:showpageshadow="2"
     inkscape:pageopacity="0.0"
     inkscape:pagecheckerboard="0"
     inkscape:deskcolor="#d1d1d1"
     inkscape:zoom="25.809398"
     inkscape:cx="16.524989"
     inkscape:cy="19.489025"
     inkscape:window-width="2213"
     inkscape:window-height="1337"
     inkscape:window-x="35"
     inkscape:window-y="32"
     inkscape:window-maximized="0"   
     inkscape:current-layer="svg2" />
  <path
     id="path3"
     style="fill:#2e3436;stroke-width:1.51181;stroke-linejoin:round;fill-opacity:1"
     d="M 8 1 A 7 7 0 0 0 1 8 A 7 7 0 0 0 8 15 A 7 7 0 0 0 15 8 A 7 7 0 0 0 8 1 z M 7.7128906 3.4277344 C 7.8427915 3.4284274 7.9714531 3.4763472 8.0722656 3.5664062 L 10.273438 5.4941406 C 10.393876 5.5973722 10.462891 5.7471013 10.462891 5.90625 C 10.462891 6.0653987 10.393874 6.2151278 10.273438 6.3183594 L 8.5449219 7.8339844 L 10.273438 9.3476562 C 10.393876 9.4508887 10.462891 9.6006164 10.462891 9.7597656 C 10.462891 9.9189139 10.393874 10.070596 10.273438 10.173828 L 8.0722656 12.099609 C 7.9109656 12.243709 7.6802826 12.27568 7.4824219 12.1875 C 7.2867115 12.097173 7.1601562 11.902567 7.1601562 11.6875 L 7.1601562 8.7714844 L 5.8691406 9.8984375 C 5.6411703 10.098449 5.2957148 10.075824 5.0957031 9.8457031 C 4.8956914 9.6177323 4.916363 9.2722773 5.1464844 9.0722656 L 6.5605469 7.8339844 L 5.1464844 6.59375 C 4.9163631 6.3937384 4.8956915 6.0484799 5.0957031 5.8183594 C 5.2957148 5.5903911 5.6411703 5.5695197 5.8691406 5.7695312 L 7.1601562 6.8964844 L 7.1601562 3.9785156 C 7.1601562 3.7634493 7.2867115 3.5688435 7.4824219 3.4785156 C 7.5566196 3.4446425 7.6349501 3.4273186 7.7128906 3.4277344 z M 8.2617188 5.1914062 L 8.2617188 6.6210938 L 9.078125 5.90625 L 8.2617188 5.1914062 z M 8.2617188 9.046875 L 8.2617188 10.474609 L 9.078125 9.7597656 L 8.2617188 9.046875 z " />
</svg>
