<?xml version="1.0" encoding="UTF-8" standalone="no"?>
<!-- Created with Inkscape (http://www.inkscape.org/) -->

<svg
   width="128"
   height="128"
   viewBox="0 0 128 128"
   version="1.1"
   id="svg5"
   inkscape:version="1.3 (0e150ed6c4, 2023-07-21)"
   sodipodi:docname="io.github.kaii_lb.Overskride.svg"
   xml:space="preserve"
   xmlns:inkscape="http://www.inkscape.org/namespaces/inkscape"
   xmlns:sodipodi="http://sodipodi.sourceforge.net/DTD/sodipodi-0.dtd"
   xmlns:xlink="http://www.w3.org/1999/xlink"
   xmlns="http://www.w3.org/2000/svg"
   xmlns:svg="http://www.w3.org/2000/svg"><sodipodi:namedview
     id="namedview7"
     pagecolor="#ffffff"
     bordercolor="#666666"
     borderopacity="1"
     inkscape:pageshadow="2"
     inkscape:pageopacity="0.0"
     inkscape:pagecheckerboard="true"
     inkscape:document-units="px"
     showgrid="false"
     inkscape:showpageshadow="false"
     showborder="true"
     inkscape:snap-page="true"
     inkscape:zoom="0.78937844"
     inkscape:cx="141.88378"
     inkscape:cy="186.85588"
     inkscape:window-width="1478"
     inkscape:window-height="1312"
     inkscape:window-x="35"
     inkscape:window-y="32"
     inkscape:window-maximized="0"
     inkscape:current-layer="layer2"
     inkscape:snap-bbox="true"
     inkscape:snap-bbox-midpoints="true"
     inkscape:snap-bbox-edge-midpoints="true"
     inkscape:bbox-nodes="true"
     inkscape:bbox-paths="true"
     inkscape:snap-intersection-paths="true"
     inkscape:object-paths="true"
     inkscape:snap-smooth-nodes="true"
     inkscape:snap-midpoints="true"
     inkscape:deskcolor="#d1d1d1"
     showguides="false" /><defs
     id="defs2"><inkscape:path-effect
       effect="bspline"
       id="path-effect7"
       is_visible="true"
       lpeversion="1.3"
       weight="33.333333"
       steps="2"
       helper_size="0"
       apply_no_weight="true"
       apply_with_weight="true"
       only_selected="false"
       uniform="false" /><linearGradient
       inkscape:collect="always"
       id="linearGradient7939"><stop
         style="stop-color:#1565c0;stop-opacity:1"
         offset="0"
         id="stop7935" /><stop
         style="stop-color:#1565c0;stop-opacity:1"
         offset="0.28295189"
         id="stop8493" /><stop
         style="stop-color:#0a76d8;stop-opacity:1;"
         offset="0.5"
         id="stop8233" /><stop
         style="stop-color:#1565c0;stop-opacity:1"
         offset="0.7060551"
         id="stop8751" /><stop
         style="stop-color:#1565c0;stop-opacity:1"
         offset="1"
         id="stop7937" /></linearGradient><linearGradient
       inkscape:collect="always"
       xlink:href="#linearGradient7939"
       id="linearGradient7941"
       x1="9"
       y1="70"
       x2="119"
       y2="70"
       gradientUnits="userSpaceOnUse"
       gradientTransform="translate(0,-2)" /></defs><g
     inkscape:groupmode="layer"
     id="layer2"
     inkscape:label="Layer 1"><ellipse
       style="fill:#1565c0;fill-opacity:1;stroke-width:1.51181;stroke-linejoin:round"
       id="ellipse6"
       cx="-8.3532486"
       cy="-50.878937"
       rx="34.234108"
       ry="34.795647" /><path
       id="circle1035"
       style="fill:url(#linearGradient7941);fill-opacity:1"
       d="M 64 5 A 55 55 0 0 0 9 60 L 9 68 A 55 55 0 0 0 64 123 A 55 55 0 0 0 119 68 L 119 60 A 55 55 0 0 0 64 5 z " /><circle
       style="fill:#108bff;fill-opacity:1;stroke:none"
       id="path953"
       cx="64"
       cy="60"
       r="55" /><circle
       style="fill:#0082fc;fill-opacity:1;stroke-width:0.961244"
       id="circle342"
       cx="64"
       cy="60"
       r="52.868427" /><path
       d="m 64.586472,29.992414 c -1.515884,0.699637 -2.498711,2.215522 -2.498711,3.881327 v 22.588332 l -9.994837,-8.728824 c -1.765753,-1.549199 -4.447704,-1.38262 -5.996903,0.38312 -1.549199,1.782409 -1.38262,4.46436 0.399794,6.013559 l 10.944346,9.595044 -10.944346,9.595044 c -1.782414,1.549201 -1.948993,4.231148 -0.399794,5.996903 1.549199,1.782415 4.23115,1.948988 5.996903,0.399795 l 9.994837,-8.728831 v 22.588336 c 0,1.665804 0.982827,3.181694 2.498711,3.881323 1.532538,0.68298 3.314952,0.433115 4.564308,-0.682978 L 86.208641,81.848945 c 0.93284,-0.799591 1.4659,-1.965657 1.4659,-3.198346 0,-1.232697 -0.53306,-2.398763 -1.4659,-3.198353 L 72.815553,63.724972 86.208641,51.997696 c 0.93284,-0.799587 1.4659,-1.965653 1.4659,-3.198348 0,-1.232694 -0.53306,-2.398761 -1.4659,-3.198348 L 69.15078,30.675377 c -1.249356,-1.116092 -3.03177,-1.382621 -4.564308,-0.68298 z m 6.030216,13.276475 6.330062,5.530476 -6.330062,5.530476 z m 0,29.85125 6.330062,5.530477 -6.330062,5.530469 z m 0,0"
       fill="#2e3436"
       id="path2"
       style="fill:#c8c8c8;fill-opacity:0.368984;stroke-width:0.999996" /><path
       d="m 61.921886,27.278404 c -1.515884,0.699637 -2.498711,2.215522 -2.498711,3.881327 v 22.588332 l -9.994837,-8.728824 c -1.765753,-1.549199 -4.447704,-1.38262 -5.996903,0.38312 -1.549199,1.782409 -1.38262,4.46436 0.399794,6.013559 l 10.944346,9.595044 -10.944346,9.595044 c -1.782414,1.549201 -1.948993,4.231148 -0.399794,5.996903 1.549199,1.782415 4.23115,1.948988 5.996903,0.399795 l 9.994837,-8.728831 v 22.588336 c 0,1.665804 0.982827,3.181694 2.498711,3.881323 1.532538,0.68298 3.314952,0.433115 4.564308,-0.682978 L 83.544055,79.134935 c 0.93284,-0.799591 1.4659,-1.965657 1.4659,-3.198346 0,-1.232697 -0.53306,-2.398763 -1.4659,-3.198353 L 70.150967,61.010962 83.544055,49.283686 c 0.93284,-0.799587 1.4659,-1.965653 1.4659,-3.198348 0,-1.232694 -0.53306,-2.398761 -1.4659,-3.198348 L 66.486194,27.961367 c -1.249356,-1.116092 -3.03177,-1.382621 -4.564308,-0.68298 z m 6.030216,13.276475 6.330062,5.530476 -6.330062,5.530476 z m 0,29.85125 6.330062,5.530477 -6.330062,5.530469 z m 0,0"
       fill="#2e3436"
       id="path1"
       style="fill:#ffffff;fill-opacity:1;stroke-width:0.999996" /><path
       id="path3"
       style="fill:#0082fc;fill-opacity:1;stroke-width:1.51181;stroke-linejoin:round"
       d="m -8.9589844,-171.0957 c -18.9074716,-2.3e-4 -34.2349286,24.02806 -34.2343746,53.66797 0.0029,14.16751 9.081236,33.444127 12.169414,40.94512 -4.406399,1.374313 -11.616745,11.843655 -11.644024,20.730657 3.94e-4,19.216928 15.327574,34.795072 34.2343752,34.794922 18.9068018,1.5e-4 34.2339808,-15.577994 34.2343748,-34.794922 -9.01e-4,-9.239055 -4.329836,-15.625427 -6.896318,-19.410425 1.823565,-7.022803 6.355446,-28.453732 6.370928,-42.265352 5.54e-4,-29.63991 -15.3269033,-53.6682 -34.2343754,-53.66797 z"
       sodipodi:nodetypes="ccccccccc" /><ellipse
       style="fill:#ffffff;stroke-width:1.51181;stroke-linejoin:round"
       id="path4"
       cx="-61.629261"
       cy="-51.661991"
       rx="0.42251965"
       ry="6.5424938" /><path
       d="m -8.1261947,-154.67648 c -1.9288043,0.89022 -3.1793573,2.81902 -3.1793573,4.9386 v 28.74139 l -12.717427,-11.10656 c -2.246739,-1.9712 -5.659254,-1.75924 -7.630454,0.48748 -1.971199,2.26794 -1.759245,5.68047 0.508698,7.65167 l 13.92558,12.20872 -13.92558,12.20872 c -2.267943,1.971213 -2.479897,5.383712 -0.508698,7.630461 1.9712,2.267938 5.383715,2.479894 7.630454,0.508693 l 12.717427,-11.106554 v 28.741386 c 0,2.119565 1.250553,4.048383 3.1793573,4.93859 1.950003,0.869023 4.21794,0.551095 5.8076255,-0.869021 L 19.385841,-88.694258 c 1.186945,-1.017398 1.86521,-2.501092 1.86521,-4.069563 0,-1.568486 -0.678265,-3.052193 -1.86521,-4.069591 L 2.3444813,-111.75518 19.385841,-126.67698 c 1.186945,-1.01738 1.86521,-2.50109 1.86521,-4.06956 0,-1.56849 -0.678265,-3.05218 -1.86521,-4.06958 l -21.7044102,-18.99135 c -1.5896855,-1.42013 -3.8576225,-1.75926 -5.8076255,-0.86903 z m 7.67284779,16.89298 8.05436481,7.03697 -8.05436481,7.03699 z m 0,37.982726 8.05436481,7.036966 -8.05436481,7.036963 z m 0,0"
       fill="#2e3436"
       id="path5"
       style="fill:#c8c8c8;fill-opacity:0.368984;stroke-width:0.999998" /><path
       d="m -11.516617,-158.12979 c -1.928805,0.89023 -3.179357,2.81903 -3.179357,4.9386 v 28.74139 l -12.71742,-11.10656 c -2.246744,-1.97119 -5.659256,-1.75924 -7.630456,0.48749 -1.9712,2.26793 -1.759245,5.68044 0.508698,7.65165 l 13.925574,12.20873 -13.925574,12.20873 c -2.267943,1.97121 -2.479898,5.383707 -0.508698,7.63046 1.9712,2.267937 5.383712,2.479893 7.630456,0.508692 l 12.71742,-11.106552 v 28.741381 c 0,2.119563 1.250552,4.04838 3.179357,4.938589 1.9500033,0.869025 4.2179523,0.551102 5.8076253,-0.869023 L 15.995418,-92.147562 c 1.186945,-1.017395 1.86521,-2.50109 1.86521,-4.069564 0,-1.568487 -0.678265,-3.052193 -1.86521,-4.069594 l -17.0413461,-14.92177 17.0413461,-14.92179 c 1.186945,-1.01739 1.86521,-2.50109 1.86521,-4.06957 0,-1.56848 -0.678265,-3.05218 -1.86521,-4.06958 l -21.7044097,-18.99135 c -1.589673,-1.42012 -3.857622,-1.75925 -5.8076253,-0.86902 z m 7.6728473,16.89299 8.0543645,7.03697 -8.0543645,7.03697 z m 0,37.98272 8.0543645,7.036967 -8.0543645,7.036964 z m 0,0"
       fill="#2e3436"
       id="path6"
       style="fill:#ffffff;fill-opacity:1;stroke-width:0.999998" /><path
       style="fill:#1565c0;fill-opacity:1;stroke:#108bff;stroke-width:1.51181;stroke-linejoin:round;stroke-opacity:1"
       d="m -10.994258,-170.06897 c -6.052906,1.05645 -12.495967,4.05053 -18.18939,9.57107 -5.693423,5.52054 -10.637006,13.5672 -13.183498,20.67866 -2.546492,7.11145 -2.695785,13.28729 -2.165072,20.14449 0.530714,6.8572 1.741386,14.39533 3.123266,20.795288 1.38188,6.399958 2.934847,11.661269 3.71371,15.889466 0.778864,4.228198 0.783529,7.422837 -0.570634,12.499488 -1.354162,5.076651 -4.067153,12.03525 -4.639244,19.79465 -0.572092,7.759401 0.996652,16.319262 3.560965,21.605298 2.564313,5.286035 6.124021,7.297994 11.75332,9.389327 5.629298,2.091334 13.327808,4.261916 21.2499143,3.835283 7.9221062,-0.426632 16.0673287,-3.450401 21.6951237,-7.293072 5.627794,-3.842672 8.737873,-8.504 10.525349,-15.103148 1.787476,-6.599149 2.252267,-15.135683 1.725342,-21.494223 -0.526926,-6.358539 -2.045517,-10.538747 -2.952377,-14.152502 -0.90686,-3.613754 -1.201947,-6.66085 -0.711182,-13.034316 0.490766,-6.373466 1.767338,-16.072849 2.547355,-24.367309 0.780017,-8.29446 1.063441,-15.18352 -0.588767,-22.64782 -1.652208,-7.46431 -5.239906,-15.50339 -8.815176,-21.50006 -3.575269,-5.99667 -7.1378954,-9.95061 -11.7506766,-12.36822 -4.61278106,-2.41761 -10.2754227,-3.29879 -16.3283284,-2.24235 z"
       id="path7"
       inkscape:path-effect="#path-effect7"
       inkscape:original-d="m -10.604106,-172.00661 c -6.44306,2.99408 -12.88612,5.98817 -19.329181,8.98226 -4.943783,8.04699 -9.887368,16.09365 -14.831052,24.14048 -0.149299,6.17608 -0.298592,12.35192 -0.447888,18.52788 1.210722,7.53844 2.421396,15.07657 3.632094,22.61486 1.553061,5.261626 3.106028,10.522937 4.659089,15.784564 0.0047,3.194768 0.0093,6.389407 0.014,9.584111 -2.71299,6.958598 -5.425981,13.917197 -8.138971,20.875795 1.568807,8.560203 3.137551,17.120064 4.706327,25.680097 3.55985,2.012038 7.119558,4.023997 10.679337,6.035995 7.698818,2.170669 15.397328,4.341251 23.0959917,6.511876 8.1455487,-3.02389 16.2907715,-6.047658 24.4361573,-9.071488 3.110203,-4.661514 6.220282,-9.322842 9.330424,-13.984263 0.46481,-8.536876 0.929601,-17.07341 1.394402,-25.610115 -1.518652,-4.180374 -3.037243,-8.360582 -4.555864,-12.540873 -0.295099,-3.047218 -0.590186,-6.094314 -0.885279,-9.141471 1.276624,-9.699775 2.553196,-19.399158 3.829795,-29.098748 0.283435,-6.88933 0.566858,-13.77839 0.850288,-20.66759 -3.587844,-8.03941 -7.175545,-16.07849 -10.763317,-24.11774 -3.562766,-3.95409 -7.1253897,-7.90803 -10.6880848,-11.86204 -5.66286799,-0.88122 -11.3255095,-1.7624 -16.9882642,-2.64359 z"
       transform="translate(103.63716,-3.0354932)"
       sodipodi:nodetypes="ccccccccccccccccccccc" /></g></svg>
