<?xml version="1.0" encoding="UTF-8" standalone="no"?>
<!-- Created with Inkscape (http://www.inkscape.org/) -->

<svg
   width="128"
   height="128"
   viewBox="0 0 128 128"
   version="1.1"
   id="svg5"
   inkscape:version="1.2.2 (b0a84865, 2022-12-01)"
   sodipodi:docname="io.github.kaii_lb.Overskride_.svg"
   xml:space="preserve"
   xmlns:inkscape="http://www.inkscape.org/namespaces/inkscape"
   xmlns:sodipodi="http://sodipodi.sourceforge.net/DTD/sodipodi-0.dtd"
   xmlns:xlink="http://www.w3.org/1999/xlink"
   xmlns="http://www.w3.org/2000/svg"
   xmlns:svg="http://www.w3.org/2000/svg"><sodipodi:namedview
     id="namedview7"
     pagecolor="#ffffff"
     bordercolor="#666666"
     borderopacity="1"
     inkscape:pageshadow="2"
     inkscape:pageopacity="0.0"
     inkscape:pagecheckerboard="true"
     inkscape:document-units="px"
     showgrid="false"
     inkscape:showpageshadow="false"
     showborder="true"
     inkscape:snap-page="true"
     inkscape:zoom="0.78937844"
     inkscape:cx="141.25037"
     inkscape:cy="187.48929"
     inkscape:window-width="1478"
     inkscape:window-height="1312"
     inkscape:window-x="35"
     inkscape:window-y="25"
     inkscape:window-maximized="0"
     inkscape:current-layer="layer2"
     inkscape:snap-bbox="true"
     inkscape:snap-bbox-midpoints="true"
     inkscape:snap-bbox-edge-midpoints="true"
     inkscape:bbox-nodes="true"
     inkscape:bbox-paths="true"
     inkscape:snap-intersection-paths="true"
     inkscape:object-paths="true"
     inkscape:snap-smooth-nodes="true"
     inkscape:snap-midpoints="true"
     inkscape:deskcolor="#d1d1d1"
     showguides="false" /><defs
     id="defs2"><linearGradient
       inkscape:collect="always"
       id="linearGradient7939"><stop
         style="stop-color:#1565c0;stop-opacity:1"
         offset="0"
         id="stop7935" /><stop
         style="stop-color:#1565c0;stop-opacity:1"
         offset="0.28295189"
         id="stop8493" /><stop
         style="stop-color:#0a76d8;stop-opacity:1;"
         offset="0.5"
         id="stop8233" /><stop
         style="stop-color:#1565c0;stop-opacity:1"
         offset="0.7060551"
         id="stop8751" /><stop
         style="stop-color:#1565c0;stop-opacity:1"
         offset="1"
         id="stop7937" /></linearGradient><linearGradient
       inkscape:collect="always"
       xlink:href="#linearGradient7939"
       id="linearGradient7941"
       x1="9"
       y1="70"
       x2="119"
       y2="70"
       gradientUnits="userSpaceOnUse"
       gradientTransform="translate(0,-2)" /></defs><g
     inkscape:groupmode="layer"
     id="layer2"
     inkscape:label="Layer 1"><path
       id="circle1035"
       style="fill:url(#linearGradient7941);fill-opacity:1"
       d="M 64 5 A 55 55 0 0 0 9 60 L 9 68 A 55 55 0 0 0 64 123 A 55 55 0 0 0 119 68 L 119 60 A 55 55 0 0 0 64 5 z " /><circle
       style="fill:#108bff;fill-opacity:1;stroke:none"
       id="path953"
       cx="64"
       cy="60"
       r="55" /><circle
       style="fill:#0082fc;fill-opacity:1;stroke-width:0.961244"
       id="circle342"
       cx="64"
       cy="60"
       r="52.868427" /><path
       d="m 64.586472,29.992414 c -1.515884,0.699637 -2.498711,2.215522 -2.498711,3.881327 v 22.588332 l -9.994837,-8.728824 c -1.765753,-1.549199 -4.447704,-1.38262 -5.996903,0.38312 -1.549199,1.782409 -1.38262,4.46436 0.399794,6.013559 l 10.944346,9.595044 -10.944346,9.595044 c -1.782414,1.549201 -1.948993,4.231148 -0.399794,5.996903 1.549199,1.782415 4.23115,1.948988 5.996903,0.399795 l 9.994837,-8.728831 v 22.588336 c 0,1.665804 0.982827,3.181694 2.498711,3.881323 1.532538,0.68298 3.314952,0.433115 4.564308,-0.682978 L 86.208641,81.848945 c 0.93284,-0.799591 1.4659,-1.965657 1.4659,-3.198346 0,-1.232697 -0.53306,-2.398763 -1.4659,-3.198353 L 72.815553,63.724972 86.208641,51.997696 c 0.93284,-0.799587 1.4659,-1.965653 1.4659,-3.198348 0,-1.232694 -0.53306,-2.398761 -1.4659,-3.198348 L 69.15078,30.675377 c -1.249356,-1.116092 -3.03177,-1.382621 -4.564308,-0.68298 z m 6.030216,13.276475 6.330062,5.530476 -6.330062,5.530476 z m 0,29.85125 6.330062,5.530477 -6.330062,5.530469 z m 0,0"
       fill="#2e3436"
       id="path2"
       style="fill:#c8c8c8;fill-opacity:0.368984;stroke-width:0.999996" /><path
       d="m 61.921886,27.278404 c -1.515884,0.699637 -2.498711,2.215522 -2.498711,3.881327 v 22.588332 l -9.994837,-8.728824 c -1.765753,-1.549199 -4.447704,-1.38262 -5.996903,0.38312 -1.549199,1.782409 -1.38262,4.46436 0.399794,6.013559 l 10.944346,9.595044 -10.944346,9.595044 c -1.782414,1.549201 -1.948993,4.231148 -0.399794,5.996903 1.549199,1.782415 4.23115,1.948988 5.996903,0.399795 l 9.994837,-8.728831 v 22.588336 c 0,1.665804 0.982827,3.181694 2.498711,3.881323 1.532538,0.68298 3.314952,0.433115 4.564308,-0.682978 L 83.544055,79.134935 c 0.93284,-0.799591 1.4659,-1.965657 1.4659,-3.198346 0,-1.232697 -0.53306,-2.398763 -1.4659,-3.198353 L 70.150967,61.010962 83.544055,49.283686 c 0.93284,-0.799587 1.4659,-1.965653 1.4659,-3.198348 0,-1.232694 -0.53306,-2.398761 -1.4659,-3.198348 L 66.486194,27.961367 c -1.249356,-1.116092 -3.03177,-1.382621 -4.564308,-0.68298 z m 6.030216,13.276475 6.330062,5.530476 -6.330062,5.530476 z m 0,29.85125 6.330062,5.530477 -6.330062,5.530469 z m 0,0"
       fill="#2e3436"
       id="path1"
       style="fill:#ffffff;fill-opacity:1;stroke-width:0.999996" /></g></svg>
