<?xml version="1.0" encoding="UTF-8"?>
<svg xmlns="http://www.w3.org/2000/svg" xmlns:xlink="http://www.w3.org/1999/xlink" height="16px" viewBox="0 0 16 16" width="16px"><filter id="a" height="100%" width="100%" x="0%" y="0%"><feColorMatrix in="SourceGraphic" type="matrix" values="0 0 0 0 1 0 0 0 0 1 0 0 0 0 1 0 0 0 1 0"/></filter><mask id="b"><g filter="url(#a)"><path d="m 0 0 h 16 v 16 h -16 z" fill-opacity="0.3"/></g></mask><clipPath id="c"><path d="m 0 0 h 1600 v 1200 h -1600 z"/></clipPath><g clip-path="url(#c)" mask="url(#b)" transform="matrix(1 0 0 1 -976 -456)"><path d="m 580.9375 215.75 v -2.1875 l 4.21875 -1.128906 l 2.34375 0.59375 l 2.386719 -0.667969 l 3.742187 1 v 2.453125 z m 0 0" fill="#474747"/></g><path d="m 13.992188 1 c -0.554688 0 -1 0.445312 -1 1 v 12 c 0 0.554688 0.445312 1 1 1 h 1 c 0.554687 0 1 -0.445312 1 -1 v -12 c 0 -0.554688 -0.445313 -1 -1 -1 z m -4 3 c -0.554688 0 -1 0.445312 -1 1 v 9 c 0 0.554688 0.445312 1 1 1 h 1 c 0.554687 0 1 -0.445312 1 -1 v -9 c 0 -0.554688 -0.445313 -1 -1 -1 z m -4 3 c -0.554688 0 -1 0.445312 -1 1 v 6 c 0 0.554688 0.445312 1 1 1 h 1 c 0.554687 0 1 -0.445312 1 -1 v -6 c 0 -0.554688 -0.445313 -1 -1 -1 z m -4 3 c -0.554688 0 -1 0.445312 -1 1 v 3 c 0 0.554688 0.445312 1 1 1 h 1 c 0.554687 0 1 -0.445312 1 -1 v -3 c 0 -0.554688 -0.445313 -1 -1 -1 z m 0 0" fill="#2e3436"/></svg>
